#define bug_03_width 8
#define bug_03_height 8
static unsigned char bug_03_bits[] = {
   0x7e, 0xbd, 0x99, 0x7e, 0x3c, 0x42, 0x42, 0x24 };
