#define globe_width 8
#define globe_height 8
static unsigned char globe_bits[] = {
   0x0c, 0x6c, 0x62, 0x11, 0xc8, 0xc4, 0x22, 0x11 };
