#define invade_2_width 11
#define invade_2_height 8
static unsigned char invade_2_bits[] = {
   0x04, 0x01, 0x89, 0x04, 0xfd, 0x05, 0x77, 0x07, 0xff, 0x07, 0xfe, 0x03,
   0x04, 0x01, 0x02, 0x02 };
