#define invade_4_width 10
#define invade_4_height 9
static unsigned char invade_4_bits[] = {
   0x30, 0x00, 0x78, 0x00, 0xfc, 0x00, 0xb6, 0x01, 0xff, 0x03, 0xff, 0x03,
   0x48, 0x00, 0xb4, 0x00, 0x4a, 0x01 };
