#define invade_3_width 11
#define invade_3_height 8
static unsigned char invade_3_bits[] = {
   0x70, 0x00, 0xfe, 0x03, 0xff, 0x07, 0x27, 0x07, 0xff, 0x07, 0xd8, 0x00,
   0xac, 0x01, 0x03, 0x06 };
