#define invade_5_width 11
#define invade_5_height 8
static unsigned char invade_5_bits[] = {
   0x00, 0x00, 0x20, 0x00, 0x70, 0x00, 0x70, 0x00, 0xfe, 0x03, 0xff, 0x07,
   0xff, 0x07, 0xff, 0x07 };
