#define sperm_width 8
#define sperm_height 8
static unsigned char sperm_bits[] = {
   0xc0, 0xe0, 0xe0, 0xe6, 0x49, 0x49, 0x31, 0x02 };
